<svg id="Layer_1" data-name="Layer 1" xmlns="http://www.w3.org/2000/svg" viewBox="0 0 590 630"><defs><style>.cls-1{fill:none;stroke:#f0ebd8;stroke-linecap:round;stroke-linejoin:round;stroke-width:2px;}.cls-2{fill:#f0ebd8;}</style></defs><title>callig-web-vector</title><path class="cls-1" d="M158,156a24.3,24.3,0,0,0,5.5-8.5c-12,5-20.27,5.91-34,3-16.5-3.5-33.19,0-39,9-5.5,8.5-.5,18,9,18,7.5,0,16-5,21-15,7.64-15.28,5-35-14-35s-33.9,15-40,28c-8,17-2,42,23,42,46,0,76-90,98-90,2.75,0,4.25,1.06,5,2.66"/><path class="cls-1" d="M137,221s5,10,22,10c32,0,45-20,75-20,13,0,20,6,20,12s-7,12-21,12c-19.33,0-56-11-63-33-5.18-16.28,12-42,12-42s-5-2-6-5,5-11,5-11C138,209,89,264,39,264c-17,0-29-5-29-13,0-9,12-15,28-15,40,0,90,24,128,24,4,0,11-1,14-3.11"/><path class="cls-1" d="M340,385c-3,6-7,19-17,19-8,0-6-16,5-31a17.08,17.08,0,0,1-8-9c-1-3,6-10,6-10a616.85,616.85,0,0,1-37.38,51.21"/><path class="cls-1" d="M422,350c-28,0-104,194-259,194-38,0-55-20-55-36s17-34,55-34c44,0,122,35,122,90"/><path class="cls-1" d="M301,564c0-55,78-90,122-90,38,0,55,18,55,34s-21,36-55,36c-119,2-176-118-231-117-18,0-33,8-33,17,0,8,9,13,26,13,44,0,75-21,113-88"/><path class="cls-1" d="M281,196c1-6,5-12,12-12,6,0,10.71,6.14,9,13-2,8-11,15-24,15-10,0-21-8-11-27s10-26,3-26c-5,0-10,5-15,11-4.53,5.43-14,23-14,23a203.35,203.35,0,0,1,11-19c6-9,5-15,0-15s-11,4-16,10-18,24-18,24,8-12,13-19,8-16,2-16-12,10-18,10-3-8-2-10c6,0,5,9,0,18s-13,17-20,17c-5,0-10.72-6.83-2-21,5-9,14-14,19-14"/><path class="cls-1" d="M157,369c-6,0-13,5-18,14-8.72,14.17-3,21,2,21,7,0,13-5,18-14S166,369,157,369Z"/><path class="cls-1" d="M284,369c-5,0-14,5-19,14-8.72,14.17-3,21,2,21,7,0,14.54-8.27,20-17C292,379,291,369,284,369Z"/><path class="cls-1" d="M360,369c-5,0-14,5-19,14-8.72,14.17-3,21,2,21,7,0,14.54-8.27,20-17C368,379,367,369,360,369Z"/><path class="cls-1" d="M222.84,266c5.16-7,14.88-3.49,2,14-8.84,12-5.84,18,2,18,5.16,0,11-5,16-11,4.53-5.43,14-23,14-23a203.35,203.35,0,0,1-11,19c-6,9-1,15,4,15,12.16,0,17.16-14,29-34C270,278,283,281,300,252c0,0-8,5-5,11,1.41,2.83,6,5,6,5s-19,29-3,29c11,0,18-20,26-33-10,17-14,34-4,34s17-18,31-40c-14,22-17,40-8,40s18-15,23-23c-2,3-2,9,2,9,6,0,12-8,14-12s2-10-3-10c-8,0-31,36-11,36s26-22,26-22"/><path class="cls-1" d="M173,369c-19,24-17,35-8,35,12,0,23-22,45-55,12.18-18.27,30-39,42-39"/><path class="cls-1" d="M333,112s-5-12-25-12c-15,0-25,8-25,17,0,12,22,22,55,21,33,0,45.46-15.46,49-19,5-5,11-17,4-17s-33,22-49,50-18,40-10,42,20-11,28-24c3,3,14,0,18-4,3-3,2-7-2-7-6,0-13,5-20,17-5.43,9.3-5,19,3,19s35-19,43-34c0,0,20-20,29-32s13-22,9-22c-25,0-52,124-111,124-12,0-20-3-20-11,0-7,10-12,24-12,34,0,65,20,105,21,26,0,31-17,31-17"/><path class="cls-1" d="M97,311s-5-8-25-8c-15,0-31,9-31,21s25,25,68,24c33,0,65.13-16.63,70-28,3-7,1-15-16-15s-49.29,15.42-66,43c-20,33-8,57,7,57s27-9,35-22"/><path class="cls-1" d="M436,183c-1,5-7,12-14,12-6,0-8-10,0-26,5.4-10.81,9-14,9-14s-8,16-18,16-16-7-22-7c-5,0-6.66,3.5-5,6,2,3,8,3,4.38,10.89"/><path class="cls-1" d="M161,248s-10,14-16,22c-10.73,14.31-10,27,0,27,14,0,28-33,43-33-8,0-14,5-19,14-8.72,14.17-2,19,3,19,7,0,14-6,19-15s6-18,0-18c-1,2-4,10,2,10s14-3,18-10"/><path class="cls-1" d="M150.17,116.09c-7.2,13.42-18.47,27.49-34.41,26.1s-10.57-23,.06-35.13c12.27-14,32.71-18.22,52.64-16.47,20.92,1.83,28.93,13.57,48.85,15.32,10,.87,18.19-1.42,21.53-5.14"/><path class="cls-1" d="M416,158c4-7,17-10,27-10,22,0,37,13,61,13,23,0,32-10,32-20s-9-20-30-20c-16,0-29,6-32,11"/><path class="cls-1" d="M335,252c6-3,20-5,40-5,50,0,78,29,130,29,24-1,30-11,30-20s-10-17-29-17-30,6-30,11"/><path class="cls-1" d="M229.32,358C208,390,205,405,215.77,405.2,225,405.38,235,391,249,369c-14,22-19,36-8,36.2,14,0,24-22.2,24-22.2"/><path class="cls-1" d="M513,369c-35,56-59,88-92,88-24,0-35-8-35-17,0-8,12-18,35-18,40,0,75,33,109,33s54-24,54-45-14-29-27-29-22,10-22,20"/><path class="cls-1" d="M458,354l-34,50s22-35,37-35c22,0-26,34-3,34,12,0,31-34,31-34s-23,33-8,33c11,0,24.92-21.5,24.92-21.5"/><path class="cls-1" d="M454,313s-15-12-30-12-25,6.94-25,16c0,13,27,23,56,23s55.56-4.17,68-18c9-10,5-20-6-20-13,0-27,9-59,52-14.83,19.93-40,50-53,50-7,0-6.32-5.86.59-10.76C420,383,422,368,410,368c-8,0-16.08,8-23,18.5S374,404,366,404c-12,0-5-15,9-35"/><path class="cls-1" d="M67,396a24.45,24.45,0,0,0-22-13,30.09,30.09,0,0,0-30,30c0,17,14,36,41,36,23,0,43-15,64-15,13,0,17,5,17,10s-5,8-9,8"/><path class="cls-1" d="M489,199c9.22,0,16,7,17,13"/><path class="cls-1" d="M492,193s1-2,6-2c10,0,14,14,27,14,7,0,11-5,11-10a9,9,0,0,0-9-9c-7,0-9,5-9,8"/><path class="cls-1" d="M457,92a8,8,0,0,0,15-4c0-5-4-10-12-10-13,0-22,15-45,15-13,0-19-9-19-16s5-15,15-15c7,0,11,4,11,9s-3,9-9,9"/><path class="cls-1" d="M262,347c3,0,20-6,27-17s4-21-5-21-29.78,11.14-52,45c-21,32-32,50-43,50-9,0-7.7-12.42,6-32"/><path class="cls-1" d="M296,3c2,0,4,2,4,6,0,16-30,50-66,50-17,0-25-6-25-16s10-17,25-17c40,0,79,32,117,32,16,0,25-7,25-17s-8-16-25-16c-36,0-66,34-66,50,0,4,2,6,4,6"/><line class="cls-1" x1="301" y1="34" x2="284" y2="51"/><line class="cls-1" x1="285" y1="563" x2="285" y2="630"/><line class="cls-1" x1="301" y1="563" x2="301" y2="630"/><circle class="cls-2" cx="254.5" cy="360.5" r="1.5"/><circle class="cls-2" cx="329.5" cy="254.5" r="1.5"/></svg>